#!OML:ASF F:\VICON\USERDATA\INSTALL\rory3\rory3.ASF
:FULLY-SPECIFIED
:DEGREES
547
root -0.640224 15.9648 35.3139 0.665121 5.57165 0.914752
lowerback 13.2213 1.38198 -5.63529
upperback -5.37798 0.873073 0.539429
thorax -13.5654 0.93432 3.572
lowerneck -10.6798 -6.77069 -4.15289
upperneck 21.6295 -9.43909 3.51998
head 8.88909 -4.42449 0.838777
rclavicle 4.48508e-015 1.34677e-014
rhumerus -31.7722 1.60913 -85.6188
rradius 39.8799
rwrist 2.1261
rhand -12.0389 20.7103
rfingers 7.12502
rthumb 14.0195 -8.79695
lclavicle 4.48508e-015 1.34677e-014
lhumerus -44.3376 5.82038 83.4771
lradius 22.0854
lwrist -1.40648
lhand -3.58035 19.5346
lfingers 7.12502
lthumb 22.1569 48.2849
rfemur -8.83774 13.7522 27.732
rtibia 29.3946
rfoot -20.04 -11.3156
rtoes 34.7223
lfemur -31.7094 -0.943444 -21.5122
ltibia 57.447
lfoot -8.77897 1.57822
ltoes 7.53469
548
root -0.639685 15.9647 35.4108 0.648051 5.56797 0.339354
lowerback 13.3447 1.36739 -5.0574
upperback -5.37469 0.973005 0.677249
thorax -13.6323 0.939937 3.37278
lowerneck -10.6486 -6.82261 -4.27097
upperneck 21.5292 -9.51514 3.6541
head 8.86553 -4.45775 0.895751
rclavicle 1.58531e-014 5.41688e-015
rhumerus -31.5863 1.82431 -85.6267
rradius 40.1651
rwrist 2.07247
rhand -12.0789 20.6469
rfingers 7.12502
rthumb 13.9809 -8.86294
lclavicle 1.58531e-014 5.41688e-015
lhumerus -44.0987 5.82121 83.5427
lradius 22.1099
lwrist -1.44936
lhand -3.61705 19.2596
lfingers 7.12502
lthumb 22.1217 48.0141
rfemur -8.08809 13.9134 28.5131
rtibia 28.701
rfoot -20.1472 -11.6065
rtoes 34.4203
lfemur -32.0966 -1.63351 -20.7636
ltibia 55.6076
lfoot -8.82363 1.68552
ltoes 8.14468
549
root -0.633958 15.9793 35.5144 0.745977 5.62987 0.287495
lowerback 13.3654 1.35501 -4.94946
upperback -5.41131 0.975902 0.684024
thorax -13.6849 0.934235 3.31817
lowerneck -10.5889 -6.82475 -4.32309
upperneck 21.4656 -9.51589 3.69611
head 8.83769 -4.45987 0.920986
rclavicle -2.80069e-014 -1.03368e-014
rhumerus -31.5035 2.033 -85.5945
rradius 40.3901
rwrist 1.98981
rhand -12.0778 20.6671
rfingers 7.12502
rthumb 13.982 -8.84268
lclavicle -2.80069e-014 -1.03368e-014
lhumerus -44.0146 5.85345 83.6529
lradius 22.338
lwrist -1.6086
lhand -3.42864 19.3795
lfingers 7.12502
lthumb 22.3025 48.1124
rfemur -7.31077 13.8141 28.6512
rtibia 27.8862
rfoot -20.3144 -11.585
rtoes 34.5579
lfemur -32.3815 -2.50578 -20.5921
ltibia 53.6084
lfoot -8.76449 2.04258
ltoes 7.11019
550
root -0.631541 15.9948 35.6241 0.793354 5.67802 0.335422
lowerback 13.4241 1.34511 -5.01889
upperback -5.44279 0.946291 0.691073
thorax -13.7576 0.929495 3.37251
lowerneck -10.5776 -6.78732 -4.23095
upperneck 21.4522 -9.44683 3.54907
head 8.81538 -4.43551 0.866101
rclavicle -1.71576e-014 -1.13804e-014
rhumerus -31.5496 2.30524 -85.568
rradius 40.6712
rwrist 1.91474
rhand -12.0631 20.5184
rfingers 7.12502
rthumb 13.9962 -8.99041
lclavicle -1.71576e-014 -1.13804e-014
lhumerus -44.0524 5.9401 83.7405
lradius 22.7475
lwrist -1.61656
lhand -3.07433 19.8224
lfingers 7.12502
lthumb 22.6426 48.5143
rfemur -6.41385 13.699 28.717
rtibia 27.002
rfoot -20.3521 -11.5925
rtoes 34.5955
lfemur -32.5278 -3.3809 -20.4732
ltibia 51.5062
lfoot -8.59768 2.45934
ltoes 6.51549
551
root -0.629203 16.003 35.737 0.793824 5.73839 0.33959
lowerback 13.3216 1.30588 -5.09656
upperback -5.34036 0.891186 0.73052
thorax -13.5716 0.906158 3.47542
lowerneck -10.7332 -6.77303 -4.26771
upperneck 21.4462 -9.41722 3.56516
head 8.84347 -4.41995 0.875173
rclavicle 7.06307e-015 1.1778e-014
rhumerus -31.3999 2.69347 -85.6021
rradius 40.8778
rwrist 1.66315
rhand -12.0904 20.4126
rfingers 7.12502
rthumb 13.9699 -9.09808
lclavicle 7.06307e-015 1.1778e-014
lhumerus -43.8535 6.09367 83.8042
lradius 23.0464
lwrist -1.47262
lhand -3.05141 19.6524
lfingers 7.12502
lthumb 22.6646 48.3416
rfemur -5.42638 13.5911 28.8468
rtibia 26.0767
rfoot -20.3811 -11.632
rtoes 34.4903
lfemur -32.5031 -4.33396 -20.2824
ltibia 49.34
lfoot -8.23829 2.93404
ltoes 6.2896
552
root -0.619711 16.0139 35.8509 0.948184 5.82477 0.377294
lowerback 13.0269 1.25574 -5.12017
upperback -5.27889 0.83821 0.740266
thorax -13.3136 0.876101 3.51411
lowerneck -10.8049 -6.7808 -4.35069
upperneck 21.4192 -9.42072 3.62331
head 8.85498 -4.42108 0.905085
rclavicle 2.03661e-014 3.03147e-015
rhumerus -31.1856 2.96811 -85.5997
rradius 40.9095
rwrist 1.60737
rhand -12.2355 20.5733
rfingers 7.12502
rthumb 13.83 -8.94691
lclavicle 2.03661e-014 3.03147e-015
lhumerus -43.5621 6.13041 83.9543
lradius 23.1353
lwrist -1.27602
lhand -3.24359 19.2395
lfingers 7.12502
lthumb 22.4802 47.951
rfemur -4.54772 13.3727 28.8571
rtibia 25.0708
rfoot -20.2763 -11.6632
rtoes 34.0641
lfemur -32.5565 -5.47147 -20.0811
ltibia 47.1796
lfoot -8.02029 3.28294
ltoes 8.17339
553
root -0.612388 16.0251 35.9592 1.02941 5.84274 0.106179
lowerback 12.9623 1.24999 -4.82116
upperback -5.33631 0.89571 0.798345
thorax -13.3391 0.882457 3.39529
lowerneck -10.654 -6.81199 -4.33706
upperneck 21.3917 -9.46368 3.59223
head 8.81735 -4.4465 0.89337
rclavicle -6.81459e-015 3.75206e-015
rhumerus -31.2329 3.02335 -85.5467
rradius 40.9497
rwrist 1.66882
rhand -12.1852 20.6514
rfingers 7.12502
rthumb 13.8786 -8.86551
lclavicle -6.81459e-015 3.75206e-015
lhumerus -43.4697 6.0008 84.1865
lradius 23.201
lwrist -0.843142
lhand -3.79056 18.9503
lfingers 7.12502
lthumb 21.9551 47.7244
rfemur -3.6232 13.3292 29.2407
rtibia 24.0257
rfoot -20.1776 -11.8057
rtoes 33.8309
lfemur -32.6597 -6.7018 -19.4562
ltibia 45.1133
lfoot -8.07041 3.9302
ltoes 8.46219
554
root -0.605493 16.0376 36.0644 1.06056 5.83123 0.0047203
lowerback 13.0708 1.25357 -4.72544
upperback -5.41867 0.91556 0.832017
thorax -13.502 0.891058 3.37314
lowerneck -10.5156 -6.82875 -4.32112
upperneck 21.4108 -9.48341 3.5359
head 8.7955 -4.46261 0.874624
rclavicle 7.91722e-015 -1.54058e-015
rhumerus -31.4385 3.11261 -85.502
rradius 41.1017
rwrist 1.68854
rhand -12.0133 20.5205
rfingers 7.12502
rthumb 14.0442 -8.98498
lclavicle 7.91722e-015 -1.54058e-015
lhumerus -43.478 5.6589 84.5489
lradius 23.3122
lwrist 0.0784071
lhand -4.47329 18.6912
lfingers 7.12502
lthumb 21.2994 47.5408
rfemur -2.59067 13.2059 29.4317
rtibia 22.8798
rfoot -20.0027 -11.8688
rtoes 33.5141
lfemur -32.6883 -7.91716 -18.9977
ltibia 43.1312
lfoot -8.18451 4.88621
ltoes 8.0596
